# This file was created with Minddesk Qubicle 3.0
# Get Qubicle at www.getqubicle.com

mtllib small gallows.mtl

vn 0.0 0.0 1.0
vn 0.0 0.0 -1.0
vn -1.0 0.0 0.0
vn 1.0 0.0 0.0
vn 0.0 1.0 0.0
vn 0.0 -1.0 0.0

v 1.00000 50.00000 -9.00000
v 1.00000 1.00000 -9.00000
v -1.00000 1.00000 -9.00000
v -1.00000 50.00000 -9.00000
v 1.00000 40.00000 4.00000
v 1.00000 26.00000 4.00000
v 0.00000 26.00000 4.00000
v 0.00000 40.00000 4.00000
v 1.00000 24.00000 1.00000
v 1.00000 21.00000 1.00000
v 0.00000 21.00000 1.00000
v 0.00000 24.00000 1.00000
v -1.00000 43.00000 4.00000
v -1.00000 41.00000 4.00000
v -2.00000 41.00000 4.00000
v -2.00000 43.00000 4.00000
v 2.00000 43.00000 4.00000
v 2.00000 41.00000 4.00000
v 1.00000 41.00000 4.00000
v 1.00000 43.00000 4.00000
v 2.00000 1.00000 -10.00000
v 2.00000 0.00000 -10.00000
v -2.00000 0.00000 -10.00000
v -2.00000 1.00000 -10.00000
v 2.00000 40.00000 4.00000
v -2.00000 40.00000 4.00000
v 2.00000 44.00000 4.00000
v -2.00000 44.00000 4.00000
v 1.00000 21.00000 2.00000
v 1.00000 20.00000 2.00000
v 0.00000 20.00000 2.00000
v 0.00000 21.00000 2.00000
v 1.00000 25.00000 2.00000
v 1.00000 24.00000 2.00000
v 0.00000 24.00000 2.00000
v 0.00000 25.00000 2.00000
v 1.00000 20.00000 3.00000
v 1.00000 19.00000 3.00000
v 0.00000 19.00000 3.00000
v 0.00000 20.00000 3.00000
v 1.00000 26.00000 3.00000
v 1.00000 25.00000 3.00000
v 0.00000 25.00000 3.00000
v 0.00000 26.00000 3.00000
v 1.00000 21.00000 5.00000
v 1.00000 20.00000 5.00000
v 0.00000 20.00000 5.00000
v 0.00000 21.00000 5.00000
v 1.00000 25.00000 5.00000
v 1.00000 24.00000 5.00000
v 0.00000 24.00000 5.00000
v 0.00000 25.00000 5.00000
v 1.00000 22.00000 6.00000
v 1.00000 21.00000 6.00000
v 0.00000 21.00000 6.00000
v 0.00000 22.00000 6.00000
v 1.00000 24.00000 6.00000
v 1.00000 23.00000 6.00000
v 0.00000 23.00000 6.00000
v 0.00000 24.00000 6.00000
v 1.00000 23.00000 7.00000
v 1.00000 22.00000 7.00000
v 0.00000 22.00000 7.00000
v 0.00000 23.00000 7.00000
v -1.00000 41.00000 -7.00000
v -1.00000 1.00000 -7.00000
v 1.00000 1.00000 -7.00000
v 1.00000 41.00000 -7.00000
v 0.00000 40.00000 5.00000
v 0.00000 26.00000 5.00000
v 1.00000 26.00000 5.00000
v 1.00000 40.00000 5.00000
v -1.00000 50.00000 -6.00000
v -1.00000 43.00000 -6.00000
v 1.00000 43.00000 -6.00000
v 1.00000 50.00000 -6.00000
v 0.00000 24.00000 8.00000
v 0.00000 21.00000 8.00000
v 1.00000 21.00000 8.00000
v 1.00000 24.00000 8.00000
v -1.00000 43.00000 10.00000
v -1.00000 41.00000 10.00000
v 1.00000 41.00000 10.00000
v 1.00000 43.00000 10.00000
v -2.00000 43.00000 5.00000
v -2.00000 41.00000 5.00000
v -1.00000 41.00000 5.00000
v -1.00000 43.00000 5.00000
v 1.00000 43.00000 5.00000
v 1.00000 41.00000 5.00000
v 2.00000 41.00000 5.00000
v 2.00000 43.00000 5.00000
v -2.00000 1.00000 -6.00000
v -2.00000 0.00000 -6.00000
v 2.00000 0.00000 -6.00000
v 2.00000 1.00000 -6.00000
v -2.00000 40.00000 5.00000
v 2.00000 40.00000 5.00000
v -2.00000 44.00000 5.00000
v 2.00000 44.00000 5.00000
v 0.00000 23.00000 2.00000
v 0.00000 22.00000 2.00000
v 1.00000 22.00000 2.00000
v 1.00000 23.00000 2.00000
v 0.00000 22.00000 3.00000
v 0.00000 21.00000 3.00000
v 1.00000 21.00000 3.00000
v 1.00000 22.00000 3.00000
v 0.00000 24.00000 3.00000
v 0.00000 23.00000 3.00000
v 1.00000 23.00000 3.00000
v 1.00000 24.00000 3.00000
v 0.00000 21.00000 4.00000
v 0.00000 20.00000 4.00000
v 1.00000 20.00000 4.00000
v 1.00000 21.00000 4.00000
v 0.00000 25.00000 4.00000
v 0.00000 24.00000 4.00000
v 1.00000 24.00000 4.00000
v 1.00000 25.00000 4.00000
v 0.00000 20.00000 6.00000
v 0.00000 19.00000 6.00000
v 1.00000 19.00000 6.00000
v 1.00000 20.00000 6.00000
v 0.00000 26.00000 6.00000
v 0.00000 25.00000 6.00000
v 1.00000 25.00000 6.00000
v 1.00000 26.00000 6.00000
v 0.00000 21.00000 7.00000
v 0.00000 20.00000 7.00000
v 1.00000 20.00000 7.00000
v 1.00000 21.00000 7.00000
v 0.00000 25.00000 7.00000
v 0.00000 24.00000 7.00000
v 1.00000 24.00000 7.00000
v 1.00000 25.00000 7.00000
v -1.00000 41.00000 -9.00000
v -1.00000 43.00000 -9.00000
v 0.00000 22.00000 1.00000
v 0.00000 23.00000 1.00000
v 0.00000 22.00000 8.00000
v 0.00000 23.00000 8.00000
v 1.00000 41.00000 -9.00000
v 1.00000 43.00000 -9.00000
v 1.00000 22.00000 1.00000
v 1.00000 23.00000 1.00000
v 1.00000 22.00000 8.00000
v 1.00000 23.00000 8.00000
v -2.00000 1.00000 -9.00000
v -2.00000 1.00000 -7.00000
v 2.00000 1.00000 -7.00000
v 2.00000 1.00000 -9.00000

vt 0.01563 0.78125
vt 0.01563 0.01563
vt 0.04688 0.01563
vt 0.04688 0.78125
vt 0.07813 0.64063
vt 0.07813 0.01563
vt 0.10938 0.01563
vt 0.10938 0.64063
vt 0.14063 0.64063
vt 0.14063 0.01563
vt 0.17188 0.01563
vt 0.17188 0.64063
vt 0.20313 0.64063
vt 0.20313 0.01563
vt 0.23438 0.01563
vt 0.23438 0.64063
vt 0.26563 0.23438
vt 0.26563 0.01563
vt 0.28125 0.01563
vt 0.28125 0.23438
vt 0.31250 0.23438
vt 0.31250 0.01563
vt 0.32813 0.01563
vt 0.32813 0.23438
vt 0.35938 0.23438
vt 0.35938 0.01563
vt 0.37500 0.01563
vt 0.37500 0.23438
vt 0.40625 0.23438
vt 0.40625 0.01563
vt 0.42188 0.01563
vt 0.42188 0.23438
vt 0.45313 0.18750
vt 0.45313 0.01563
vt 0.48438 0.01563
vt 0.48438 0.18750
vt 0.51563 0.17188
vt 0.51563 0.01563
vt 0.54688 0.01563
vt 0.54688 0.17188
vt 0.57813 0.12500
vt 0.57813 0.01563
vt 0.62500 0.01563
vt 0.62500 0.12500
vt 0.65625 0.12500
vt 0.65625 0.01563
vt 0.70313 0.01563
vt 0.70313 0.12500
vt 0.73438 0.12500
vt 0.73438 0.01563
vt 0.76563 0.01563
vt 0.76563 0.12500
vt 0.79688 0.09375
vt 0.79688 0.01563
vt 0.82813 0.01563
vt 0.82813 0.09375
vt 0.85938 0.09375
vt 0.85938 0.01563
vt 0.89063 0.01563
vt 0.89063 0.09375
vt 0.92188 0.07813
vt 0.92188 0.01563
vt 0.98438 0.01563
vt 0.98438 0.07813
vt 0.26563 0.32813
vt 0.26563 0.26563
vt 0.28125 0.26563
vt 0.28125 0.32813
vt 0.31250 0.32813
vt 0.31250 0.26563
vt 0.32813 0.26563
vt 0.32813 0.32813
vt 0.35938 0.31250
vt 0.35938 0.26563
vt 0.39063 0.26563
vt 0.39063 0.31250
vt 0.42188 0.31250
vt 0.42188 0.26563
vt 0.43750 0.26563
vt 0.43750 0.31250
vt 0.46875 0.31250
vt 0.46875 0.26563
vt 0.48438 0.26563
vt 0.48438 0.31250
vt 0.51563 0.31250
vt 0.51563 0.26563
vt 0.53125 0.26563
vt 0.53125 0.31250
vt 0.56250 0.29688
vt 0.56250 0.26563
vt 0.76563 0.26563
vt 0.76563 0.29688
vt 0.26563 0.39063
vt 0.26563 0.35938
vt 0.46875 0.35938
vt 0.46875 0.39063
vt 0.79688 0.29688
vt 0.79688 0.26563
vt 0.87500 0.26563
vt 0.87500 0.29688
vt 0.90625 0.29688
vt 0.90625 0.26563
vt 0.98438 0.26563
vt 0.98438 0.29688
vt 0.50000 0.39063
vt 0.50000 0.35938
vt 0.53125 0.35938
vt 0.53125 0.39063
vt 0.56250 0.39063
vt 0.56250 0.35938
vt 0.57813 0.35938
vt 0.57813 0.39063
vt 0.60938 0.39063
vt 0.60938 0.35938
vt 0.62500 0.35938
vt 0.62500 0.39063
vt 0.65625 0.39063
vt 0.65625 0.35938
vt 0.67188 0.35938
vt 0.67188 0.39063
vt 0.70313 0.39063
vt 0.70313 0.35938
vt 0.71875 0.35938
vt 0.71875 0.39063
vt 0.75000 0.39063
vt 0.75000 0.35938
vt 0.76563 0.35938
vt 0.76563 0.39063
vt 0.79688 0.39063
vt 0.79688 0.35938
vt 0.81250 0.35938
vt 0.81250 0.39063
vt 0.57813 0.17188
vt 0.57813 0.15625
vt 0.64063 0.15625
vt 0.64063 0.17188
vt 0.67188 0.17188
vt 0.67188 0.15625
vt 0.73438 0.15625
vt 0.73438 0.17188
vt 0.76563 0.17188
vt 0.76563 0.15625
vt 0.82813 0.15625
vt 0.82813 0.17188
vt 0.85938 0.17188
vt 0.85938 0.15625
vt 0.92188 0.15625
vt 0.92188 0.17188
vt 0.45313 0.23438
vt 0.45313 0.21875
vt 0.51563 0.21875
vt 0.51563 0.23438
vt 0.54688 0.23438
vt 0.54688 0.21875
vt 0.60938 0.21875
vt 0.60938 0.23438
vt 0.64063 0.23438
vt 0.64063 0.21875
vt 0.70313 0.21875
vt 0.70313 0.23438
vt 0.73438 0.23438
vt 0.73438 0.21875
vt 0.79688 0.21875
vt 0.79688 0.23438
vt 0.82813 0.23438
vt 0.82813 0.21875
vt 0.89063 0.21875
vt 0.89063 0.23438
vt 0.92188 0.23438
vt 0.92188 0.21875
vt 0.98438 0.21875
vt 0.98438 0.23438
vt 0.84375 0.37500
vt 0.84375 0.35938
vt 0.90625 0.35938
vt 0.90625 0.37500
vt 0.93750 0.37500
vt 0.93750 0.35938
vt 0.98438 0.35938
vt 0.98438 0.37500
vt 0.26563 0.43750
vt 0.26563 0.42188
vt 0.31250 0.42188
vt 0.31250 0.43750
vt 0.34375 0.43750
vt 0.34375 0.42188
vt 0.39063 0.42188
vt 0.39063 0.43750
vt 0.42188 0.43750
vt 0.42188 0.42188
vt 0.46875 0.42188
vt 0.46875 0.43750
vt 0.95313 0.17188
vt 0.95313 0.15625
vt 0.98438 0.15625
vt 0.98438 0.17188
vt 0.50000 0.43750
vt 0.50000 0.42188
vt 0.53125 0.42188
vt 0.53125 0.43750
vt 0.56250 0.43750
vt 0.56250 0.42188
vt 0.59375 0.42188
vt 0.59375 0.43750
vt 0.62500 0.43750
vt 0.62500 0.42188
vt 0.65625 0.42188
vt 0.65625 0.43750
vt 0.68750 0.43750
vt 0.68750 0.42188
vt 0.71875 0.42188
vt 0.71875 0.43750
vt 0.75000 0.43750
vt 0.75000 0.42188
vt 0.78125 0.42188
vt 0.78125 0.43750
vt 0.81250 0.43750
vt 0.81250 0.42188
vt 0.84375 0.42188
vt 0.84375 0.43750
vt 0.87500 0.43750
vt 0.87500 0.42188
vt 0.90625 0.42188
vt 0.90625 0.43750
vt 0.93750 0.43750
vt 0.93750 0.42188
vt 0.96875 0.42188
vt 0.96875 0.43750
vt 0.26563 0.48438
vt 0.26563 0.46875
vt 0.29688 0.46875
vt 0.29688 0.48438
vt 0.32813 0.48438
vt 0.32813 0.46875
vt 0.35938 0.46875
vt 0.35938 0.48438
vt 0.39063 0.48438
vt 0.39063 0.46875
vt 0.42188 0.46875
vt 0.42188 0.48438
vt 0.45313 0.48438
vt 0.45313 0.46875
vt 0.48438 0.46875
vt 0.48438 0.48438
vt 0.51563 0.48438
vt 0.51563 0.46875
vt 0.54688 0.46875
vt 0.54688 0.48438
vt 0.57813 0.48438
vt 0.57813 0.46875
vt 0.60938 0.46875
vt 0.60938 0.48438
vt 0.64063 0.48438
vt 0.64063 0.46875
vt 0.67188 0.46875
vt 0.67188 0.48438
vt 0.70313 0.48438
vt 0.70313 0.46875
vt 0.73438 0.46875
vt 0.73438 0.48438
vt 0.76563 0.48438
vt 0.76563 0.46875
vt 0.78125 0.46875
vt 0.78125 0.48438
vt 0.81250 0.48438
vt 0.81250 0.46875
vt 0.82813 0.46875
vt 0.82813 0.48438
vt 0.85938 0.48438
vt 0.85938 0.46875
vt 0.87500 0.46875
vt 0.87500 0.48438
vt 0.90625 0.48438
vt 0.90625 0.46875
vt 0.92188 0.46875
vt 0.92188 0.48438
vt 0.95313 0.48438
vt 0.95313 0.46875
vt 0.96875 0.46875
vt 0.96875 0.48438
vt 0.26563 0.53125
vt 0.26563 0.51563
vt 0.28125 0.51563
vt 0.28125 0.53125
vt 0.31250 0.53125
vt 0.31250 0.51563
vt 0.32813 0.51563
vt 0.32813 0.53125
vt 0.35938 0.53125
vt 0.35938 0.51563
vt 0.37500 0.51563
vt 0.37500 0.53125
vt 0.40625 0.53125
vt 0.40625 0.51563
vt 0.42188 0.51563
vt 0.42188 0.53125
vt 0.45313 0.53125
vt 0.45313 0.51563
vt 0.46875 0.51563
vt 0.46875 0.53125
vt 0.50000 0.53125
vt 0.50000 0.51563
vt 0.51563 0.51563
vt 0.51563 0.53125
vt 0.54688 0.53125
vt 0.54688 0.51563
vt 0.56250 0.51563
vt 0.56250 0.53125
vt 0.59375 0.53125
vt 0.59375 0.51563
vt 0.60938 0.51563
vt 0.60938 0.53125
vt 0.64063 0.53125
vt 0.64063 0.51563
vt 0.65625 0.51563
vt 0.65625 0.53125
vt 0.68750 0.53125
vt 0.68750 0.51563
vt 0.70313 0.51563
vt 0.70313 0.53125
vt 0.73438 0.53125
vt 0.73438 0.51563
vt 0.75000 0.51563
vt 0.75000 0.53125
vt 0.78125 0.53125
vt 0.78125 0.51563
vt 0.79688 0.51563
vt 0.79688 0.53125
vt 0.82813 0.53125
vt 0.82813 0.51563
vt 0.84375 0.51563
vt 0.84375 0.53125
vt 0.87500 0.53125
vt 0.87500 0.51563
vt 0.89063 0.51563
vt 0.89063 0.53125
vt 0.92188 0.53125
vt 0.92188 0.51563
vt 0.93750 0.51563
vt 0.93750 0.53125
vt 0.96875 0.53125
vt 0.96875 0.51563
vt 0.98438 0.51563
vt 0.98438 0.53125
vt 0.26563 0.57813
vt 0.26563 0.56250
vt 0.28125 0.56250
vt 0.28125 0.57813
vt 0.31250 0.57813
vt 0.31250 0.56250
vt 0.32813 0.56250
vt 0.32813 0.57813
vt 0.35938 0.57813
vt 0.35938 0.56250
vt 0.37500 0.56250
vt 0.37500 0.57813
vt 0.40625 0.57813
vt 0.40625 0.56250
vt 0.42188 0.56250
vt 0.42188 0.57813
vt 0.45313 0.57813
vt 0.45313 0.56250
vt 0.46875 0.56250
vt 0.46875 0.57813
vt 0.50000 0.57813
vt 0.50000 0.56250
vt 0.51563 0.56250
vt 0.51563 0.57813
vt 0.54688 0.57813
vt 0.54688 0.56250
vt 0.56250 0.56250
vt 0.56250 0.57813
vt 0.59375 0.57813
vt 0.59375 0.56250
vt 0.60938 0.56250
vt 0.60938 0.57813
vt 0.64063 0.57813
vt 0.64063 0.56250
vt 0.65625 0.56250
vt 0.65625 0.57813
vt 0.68750 0.57813
vt 0.68750 0.56250
vt 0.70313 0.56250
vt 0.70313 0.57813
vt 0.73438 0.57813
vt 0.73438 0.56250
vt 0.75000 0.56250
vt 0.75000 0.57813
vt 0.78125 0.57813
vt 0.78125 0.56250
vt 0.79688 0.56250
vt 0.79688 0.57813
vt 0.82813 0.57813
vt 0.82813 0.56250
vt 0.84375 0.56250
vt 0.84375 0.57813
vt 0.87500 0.57813
vt 0.87500 0.56250
vt 0.89063 0.56250
vt 0.89063 0.57813
vt 0.92188 0.57813
vt 0.92188 0.56250
vt 0.93750 0.56250
vt 0.93750 0.57813
vt 0.96875 0.57813
vt 0.96875 0.56250
vt 0.98438 0.56250
vt 0.98438 0.57813
vt 0.26563 0.62500
vt 0.26563 0.60938
vt 0.28125 0.60938
vt 0.28125 0.62500
vt 0.31250 0.62500
vt 0.31250 0.60938
vt 0.32813 0.60938
vt 0.32813 0.62500
vt 0.35938 0.62500
vt 0.35938 0.60938
vt 0.37500 0.60938
vt 0.37500 0.62500
vt 0.40625 0.62500
vt 0.40625 0.60938
vt 0.42188 0.60938
vt 0.42188 0.62500
vt 0.45313 0.62500
vt 0.45313 0.60938
vt 0.46875 0.60938
vt 0.46875 0.62500
vt 0.50000 0.62500
vt 0.50000 0.60938
vt 0.51563 0.60938
vt 0.51563 0.62500

g 
usemtl small gallows_Material
f 1/1/2 2/2/2 3/3/2 4/4/2
f 5/25/2 6/26/2 7/27/2 8/28/2
f 9/85/2 10/86/2 11/87/2 12/88/2
f 13/117/2 14/118/2 15/119/2 16/120/2
f 17/121/2 18/122/2 19/123/2 20/124/2
f 21/165/2 22/166/2 23/167/2 24/168/2
f 18/173/2 25/174/2 26/175/2 15/176/2
f 27/169/2 17/170/2 16/171/2 28/172/2
f 29/261/2 30/262/2 31/263/2 32/264/2
f 33/265/2 34/266/2 35/267/2 36/268/2
f 37/281/2 38/282/2 39/283/2 40/284/2
f 41/297/2 42/298/2 43/299/2 44/300/2
f 45/301/2 46/302/2 47/303/2 48/304/2
f 49/305/2 50/306/2 51/307/2 52/308/2
f 53/285/2 54/286/2 55/287/2 56/288/2
f 57/289/2 58/290/2 59/291/2 60/292/2
f 61/293/2 62/294/2 63/295/2 64/296/2
f 65/13/1 66/14/1 67/15/1 68/16/1
f 69/29/1 70/30/1 71/31/1 72/32/1
f 73/49/1 74/50/1 75/51/1 76/52/1
f 77/81/1 78/82/1 79/83/1 80/84/1
f 81/105/1 82/106/1 83/107/1 84/108/1
f 85/125/1 86/126/1 87/127/1 88/128/1
f 89/113/1 90/114/1 91/115/1 92/116/1
f 93/133/1 94/134/1 95/135/1 96/136/1
f 86/145/1 97/146/1 98/147/1 91/148/1
f 99/157/1 85/158/1 92/159/1 100/160/1
f 101/277/1 102/278/1 103/279/1 104/280/1
f 105/273/1 106/274/1 107/275/1 108/276/1
f 109/269/1 110/270/1 111/271/1 112/272/1
f 113/309/1 114/310/1 115/311/1 116/312/1
f 117/389/1 118/390/1 119/391/1 120/392/1
f 121/393/1 122/394/1 123/395/1 124/396/1
f 125/397/1 126/398/1 127/399/1 128/400/1
f 129/385/1 130/386/1 131/387/1 132/388/1
f 133/373/1 134/374/1 135/375/1 136/376/1
f 137/9/3 3/10/3 66/11/3 65/12/3
f 8/17/3 7/18/3 70/19/3 69/20/3
f 4/41/3 138/42/3 74/43/3 73/44/3
f 28/69/3 26/70/3 97/71/3 99/72/3
f 138/89/3 137/90/3 14/91/3 13/92/3
f 88/101/3 87/102/3 82/103/3 81/104/3
f 24/141/3 23/142/3 94/143/3 93/144/3
f 40/177/3 39/178/3 122/179/3 121/180/3
f 44/185/3 43/186/3 126/187/3 125/188/3
f 139/201/3 11/202/3 106/203/3 105/204/3
f 12/197/3 140/198/3 110/199/3 109/200/3
f 32/193/3 31/194/3 114/195/3 113/196/3
f 36/213/3 35/214/3 118/215/3 117/216/3
f 48/217/3 47/218/3 130/219/3 129/220/3
f 52/205/3 51/206/3 134/207/3 133/208/3
f 56/209/3 55/210/3 78/211/3 141/212/3
f 60/221/3 59/222/3 142/223/3 77/224/3
f 140/377/3 139/378/3 102/379/3 101/380/3
f 64/381/3 63/382/3 141/383/3 142/384/3
f 68/5/4 67/6/4 2/7/4 143/8/4
f 72/21/4 71/22/4 6/23/4 5/24/4
f 76/45/4 75/46/4 144/47/4 1/48/4
f 100/65/4 98/66/4 25/67/4 27/68/4
f 20/93/4 19/94/4 143/95/4 144/96/4
f 84/97/4 83/98/4 90/99/4 89/100/4
f 96/137/4 95/138/4 22/139/4 21/140/4
f 124/181/4 123/182/4 38/183/4 37/184/4
f 128/189/4 127/190/4 42/191/4 41/192/4
f 108/249/4 107/250/4 10/251/4 145/252/4
f 112/245/4 111/246/4 146/247/4 9/248/4
f 116/257/4 115/258/4 30/259/4 29/260/4
f 120/253/4 119/254/4 34/255/4 33/256/4
f 132/241/4 131/242/4 46/243/4 45/244/4
f 136/229/4 135/230/4 50/231/4 49/232/4
f 147/225/4 79/226/4 54/227/4 53/228/4
f 80/237/4 148/238/4 58/239/4 57/240/4
f 104/401/4 103/402/4 145/403/4 146/404/4
f 148/421/4 147/422/4 62/423/4 61/424/4
f 74/37/5 13/38/5 20/39/5 75/40/5
f 88/53/5 81/54/5 84/55/5 89/56/5
f 4/73/5 73/74/5 76/75/5 1/76/5
f 149/109/5 150/110/5 66/111/5 3/112/5
f 2/129/5 67/130/5 151/131/5 152/132/5
f 24/161/5 149/162/5 152/163/5 21/164/5
f 150/149/5 93/150/5 96/151/5 151/152/5
f 28/153/5 99/154/5 100/155/5 27/156/5
f 12/425/5 35/426/5 34/427/5 9/428/5
f 102/429/5 105/430/5 108/431/5 103/432/5
f 36/417/5 43/418/5 42/419/5 33/420/5
f 106/405/5 113/406/5 116/407/5 107/408/5
f 44/409/5 7/410/5 6/411/5 41/412/5
f 114/413/5 47/414/5 46/415/5 115/416/5
f 48/329/5 55/330/5 54/331/5 45/332/5
f 70/333/5 125/334/5 128/335/5 71/336/5
f 56/337/5 63/338/5 62/339/5 53/340/5
f 126/325/5 133/326/5 136/327/5 127/328/5
f 134/313/5 77/314/5 80/315/5 135/316/5
f 14/33/6 65/34/6 68/35/6 19/36/6
f 82/57/6 87/58/6 90/59/6 83/60/6
f 94/61/6 23/62/6 22/63/6 95/64/6
f 122/77/6 39/78/6 38/79/6 123/80/6
f 97/233/6 26/234/6 8/235/6 69/236/6
f 32/317/6 11/318/6 10/319/6 29/320/6
f 40/321/6 31/322/6 30/323/6 37/324/6
f 110/341/6 101/342/6 104/343/6 111/344/6
f 118/361/6 109/362/6 112/363/6 119/364/6
f 52/365/6 117/366/6 120/367/6 49/368/6
f 72/369/6 5/370/6 25/371/6 98/372/6
f 60/357/6 51/358/6 50/359/6 57/360/6
f 130/345/6 121/346/6 124/347/6 131/348/6
f 64/349/6 59/350/6 58/351/6 61/352/6
f 78/353/6 129/354/6 132/355/6 79/356/6
